<svg width="130" height="58" viewBox="0 0 130 58" fill="none" xmlns="http://www.w3.org/2000/svg">
<path d="M124.548 46.6274L124.548 3.53818C124.548 3.18122 124.833 2.89185 125.185 2.89185C125.537 2.89185 125.822 3.18122 125.822 3.53818L125.822 46.6274C125.822 46.9844 125.537 47.2737 125.185 47.2737C124.833 47.2737 124.548 46.9844 124.548 46.6274Z" fill="#5C65FF"/>
<path d="M80.3243 38.1258C80.6507 37.8816 82.1785 37.1848 82.5048 37.1848C82.8608 37.1848 83.1426 37.3557 83.3503 37.6976C83.5876 38.015 83.4463 39.0124 83.4463 39.4764C83.4463 40.5019 82.0598 41.288 81.1698 41.8985C79.6272 42.9485 77.8768 43.4735 75.9188 43.4735C73.1005 43.4735 71.0387 42.5089 69.7334 40.5799C68.4281 38.6264 67.7754 36.0869 67.7754 32.9613C67.7754 29.9823 68.2352 26.5881 69.1549 22.7789C70.1042 18.9696 71.4837 15.6975 73.2934 12.9626C75.1327 10.2278 77.3132 8.86035 79.8348 8.86035C81.2588 8.86035 82.3713 9.40977 83.1723 10.5086C84.003 11.583 84.4183 13.1336 84.4183 15.1603C84.4183 18.0661 83.4393 21.4358 81.4813 25.2695C79.553 29.1032 76.9127 32.8881 73.5604 36.6241C73.768 37.6253 74.1389 38.3456 74.6729 38.7851C75.2068 39.2247 75.9337 39.4444 76.8533 39.4444C77.3577 39.4444 77.9213 39.3223 78.5443 39.0781C79.197 38.834 79.7903 38.5165 80.3243 38.1258ZM78.8558 12.4865C78.1735 12.4865 77.4022 13.4999 76.5418 15.5266C75.6815 17.5533 74.925 20.0684 74.2724 23.0719C73.6197 26.0753 73.2637 28.9567 73.2044 31.716C75.3107 28.859 76.9868 26.0021 78.2328 23.1451C79.4788 20.2638 80.1018 17.6388 80.1018 15.2702C80.1018 13.4144 79.6865 12.4865 78.8558 12.4865Z" fill="#212121"/>
<path d="M69.8147 35.1224C70.2003 35.1224 70.497 35.2689 70.7047 35.5619C70.942 35.8549 71.0607 36.2578 71.0607 36.7706C71.0607 37.7473 70.7788 38.5043 70.2152 39.0415C68.9395 40.3357 67.5452 41.3979 66.0322 42.2281C64.5489 43.0584 62.8579 43.4735 60.9592 43.4735C58.3485 43.4735 56.4054 42.4967 55.1297 40.5433C53.8837 38.5898 53.2607 36.0625 53.2607 32.9613C53.2607 29.9823 53.7206 26.5881 54.6402 22.7789C55.5896 18.9696 56.9691 15.6975 58.7787 12.9626C60.618 10.2278 62.7985 8.86035 65.3202 8.86035C66.7442 8.86035 67.8567 9.40977 68.6577 10.5086C69.4883 11.583 69.9037 13.1336 69.9037 15.1603C69.9037 18.0661 68.9247 21.4358 66.9667 25.2695C65.0087 29.1032 62.3535 32.9003 59.0012 36.6607C59.2089 37.6619 59.55 38.3822 60.0247 38.8218C60.4994 39.2369 61.1224 39.4444 61.8937 39.4444C63.11 39.4444 64.178 39.1636 65.0977 38.602C66.0173 38.0159 67.1892 37.027 68.6132 35.6352C68.9692 35.2933 69.3697 35.1224 69.8147 35.1224ZM64.3412 12.4865C63.6589 12.4865 62.8875 13.4999 62.0272 15.5266C61.1669 17.5533 60.4104 20.0684 59.7577 23.0719C59.105 26.0753 58.749 28.9567 58.6897 31.716C60.796 28.859 62.4722 26.0021 63.7182 23.1451C64.9642 20.2638 65.5872 17.6388 65.5872 15.2702C65.5872 13.4144 65.1718 12.4865 64.3412 12.4865Z" fill="#212121"/>
<path d="M47.8235 16.0725C46.4148 16.0725 45.3583 15.7493 44.654 15.103C43.9496 14.4226 43.5975 13.4871 43.5975 12.2965C43.5975 11.1059 44.0503 10.1194 44.9558 9.33695C45.8949 8.52052 47.0521 8.1123 48.4272 8.1123C49.6681 8.1123 50.6743 8.41847 51.4457 9.03079C52.2172 9.64311 52.6029 10.5106 52.6029 11.6331C52.6029 12.9939 52.1668 14.0824 51.2948 14.8989C50.4228 15.6813 49.2657 16.0725 47.8235 16.0725ZM47.421 43.4738C45.2409 43.4738 43.6478 42.6914 42.6416 41.1266C41.6689 39.5618 41.1826 37.4867 41.1826 34.9013C41.1826 33.3705 41.3671 31.4145 41.736 29.0333C42.1385 26.618 42.6416 24.3728 43.2453 22.2977C43.5472 21.2092 43.9496 20.4608 44.4527 20.0526C44.9558 19.6443 45.7608 19.4402 46.8676 19.4402C48.5781 19.4402 49.4334 20.0185 49.4334 21.1751C49.4334 22.0256 49.1147 23.9986 48.4775 27.0942C47.6725 30.8362 47.2701 33.3705 47.2701 34.6972C47.2701 35.7178 47.4042 36.5002 47.6725 37.0444C47.9409 37.5887 48.3936 37.8609 49.0309 37.8609C49.6346 37.8609 50.3892 37.4357 51.2948 36.5852C52.2004 35.7348 53.4078 34.3911 54.9171 32.5541C55.3196 32.0778 55.7724 31.8397 56.2754 31.8397C56.7115 31.8397 57.0469 32.0438 57.2816 32.452C57.55 32.8603 57.6841 33.4216 57.6841 34.1359C57.6841 35.4966 57.3655 36.5512 56.7282 37.2996C53.4078 41.4157 50.3054 43.4738 47.421 43.4738Z" fill="#212121"/>
<path d="M47.626 0.918481C48.5651 1.05455 49.2023 1.3437 49.5377 1.78594C49.9067 2.22817 50.0911 2.80647 50.0911 3.52084C50.0911 5.86807 48.8502 6.95664 46.3682 6.78655L44.6074 6.63347C42.6286 6.46338 40.6497 6.32731 38.6709 6.22526C36.7256 6.12321 34.6797 6.07218 32.5331 6.07218H30.2692C29.8667 11.1068 29.4475 15.6992 29.0115 19.8494L35.9877 19.6963C37.2287 19.6963 38.0504 19.9174 38.4529 20.3597C38.8889 20.8019 39.1069 21.3972 39.1069 22.1456C39.1069 23.3022 38.7715 24.2207 38.1007 24.901C37.4299 25.5474 36.474 25.8705 35.2331 25.8705H28.3071L28.0053 28.0647C27.3009 33.6776 25.7917 37.6747 23.4774 40.056C21.1967 42.4372 18.044 43.6278 14.0192 43.6278C11.7386 43.6278 9.64233 43.1346 7.73057 42.1481C5.81881 41.1275 4.41015 39.9029 3.50458 38.4741C3.13564 37.8958 2.95117 37.1985 2.95117 36.382C2.95117 35.5656 3.13564 34.8512 3.50458 34.2389C3.90705 33.6266 4.39338 33.3204 4.96355 33.3204C5.36603 33.3204 5.75173 33.4565 6.12067 33.7287C6.52314 34.0008 7.02624 34.5281 7.62995 35.3105C9.23985 37.4536 11.2355 38.5252 13.6168 38.5252C15.5285 38.5252 17.1217 37.7428 18.3962 36.1779C19.7042 34.5791 20.5427 32.0788 20.9116 28.677L21.2135 25.8705H20.4756C19.7042 25.8705 19.0334 25.6494 18.4633 25.2072C17.9266 24.765 17.6583 24.1356 17.6583 23.3192C17.6583 22.2647 17.9266 21.4652 18.4633 20.921C18.9999 20.3426 19.7881 20.0535 20.8278 20.0535C21.7669 20.0535 21.0123 20.0365 21.9178 20.0025C22.3203 16.2605 22.7563 11.7191 23.2259 6.37834C19.6036 6.71852 17.0546 7.31383 15.5788 8.16427C14.1031 9.01472 13.3652 10.2734 13.3652 11.9402C13.3652 13.0969 13.7006 14.2024 14.3714 15.257C14.5727 15.5631 14.6733 15.8693 14.6733 16.1755C14.6733 16.7878 14.3379 17.3321 13.6671 17.8083C12.9963 18.2506 12.2416 18.4717 11.4032 18.4717C10.4976 18.4717 9.72618 18.1995 9.08892 17.6552C8.68645 17.3151 8.30074 16.6177 7.93181 15.5631C7.56287 14.5086 7.3784 13.335 7.3784 12.0423C7.3784 7.8241 9.50817 4.76249 13.7677 2.8575C18.0608 0.952499 24.3159 0 32.5331 0C38.2349 0 43.2658 0.30616 47.626 0.918481Z" fill="#212121"/>
<path d="M124.742 50.0891C127.158 50.0891 128.456 51.478 129.37 52.6614L129.74 53.1506L129.813 53.26C130.15 53.819 130.021 54.5572 129.496 54.9622C128.97 55.3672 128.235 55.2957 127.794 54.8167L127.71 54.7151L127.359 54.2532C126.569 53.2392 125.95 52.6751 124.742 52.675C123.435 52.675 122.79 53.414 121.759 54.7356C120.799 55.9651 119.452 57.7776 116.776 57.7776C114.015 57.7775 112.715 55.9635 111.779 54.7151C110.803 53.4122 110.191 52.675 108.81 52.675C107.504 52.6751 106.859 53.414 105.827 54.7356C104.867 55.9651 103.52 57.7776 100.845 57.7776C98.4289 57.7774 97.131 56.3887 96.2176 55.2053L95.8475 54.7151L95.4959 54.2532C94.7063 53.2395 94.0877 52.6752 92.8797 52.675C91.5728 52.675 90.927 53.4138 89.8953 54.7356C88.9356 55.9651 87.5895 57.7775 84.9139 57.7776C82.1529 57.7776 80.8512 55.9635 79.9158 54.7151C78.9397 53.4124 78.329 52.6751 76.948 52.675C75.6411 52.675 74.9954 53.4138 73.9637 54.7356C73.004 55.9651 71.6579 57.7776 68.9822 57.7776C66.5662 57.7776 65.2678 56.3888 64.3543 55.2053L63.9842 54.7151L63.6336 54.2532C62.8439 53.2393 62.2248 52.675 61.0164 52.675C59.7097 52.6751 59.0646 53.414 58.033 54.7356C57.0733 55.9651 55.7264 57.7776 53.0506 57.7776C50.2898 57.7774 48.9889 55.9634 48.0535 54.7151C47.0774 53.4124 46.4665 52.6752 45.0857 52.675C43.7788 52.675 43.1331 53.4138 42.1014 54.7356C41.1417 55.9651 39.7956 57.7775 37.1199 57.7776C34.7039 57.7776 33.4055 56.3888 32.492 55.2053L32.1219 54.7151L31.7713 54.2532C30.9815 53.2391 30.3626 52.6741 29.1541 52.6741C27.8472 52.6741 27.2023 53.4139 26.1707 54.7356C25.211 55.9651 23.8641 57.7766 21.1883 57.7766C18.4274 57.7765 17.1266 55.9634 16.1912 54.7151C15.2149 53.4122 14.6036 52.6741 13.2225 52.6741C11.9158 52.6742 11.2707 53.4139 10.2391 54.7356C9.27937 55.9651 7.93245 57.7766 5.25664 57.7766C2.49596 57.7764 1.19495 55.9634 0.259569 54.7151C-0.166217 54.1467 -0.0566538 53.3365 0.50371 52.9045C1.06403 52.4727 1.86293 52.5825 2.28887 53.1506C3.26508 54.4534 3.87585 55.1915 5.25664 55.1917C6.56355 55.1917 7.2093 54.4519 8.24101 53.1301C9.20065 51.9006 10.5472 50.0893 13.2225 50.0891C15.9834 50.0891 17.2851 51.9023 18.2205 53.1506C19.1968 54.4535 19.8073 55.1916 21.1883 55.1917C22.4952 55.1917 23.1409 54.4519 24.1727 53.1301C25.1323 51.9006 26.4787 50.0891 29.1541 50.0891C31.57 50.0891 32.8686 51.4779 33.782 52.6614L34.1521 53.1506L34.159 53.1604C35.1311 54.4574 35.7422 55.1917 37.1199 55.1917C38.4266 55.1915 39.0718 54.4526 40.1033 53.1311C41.063 51.9016 42.41 50.0891 45.0857 50.0891C47.8462 50.0893 49.1474 51.9023 50.0828 53.1506C51.059 54.4535 51.6697 55.1915 53.0506 55.1917C54.3575 55.1917 55.0033 54.4528 56.035 53.1311C56.9946 51.9016 58.3408 50.0892 61.0164 50.0891C63.4323 50.0891 64.7309 51.4779 65.6443 52.6614L66.0145 53.1506L66.365 53.6125C67.155 54.6269 67.7736 55.1916 68.9822 55.1917C70.289 55.1917 70.9341 54.4526 71.9656 53.1311C72.9253 51.9016 74.2723 50.0891 76.948 50.0891C79.7086 50.0892 81.0097 51.9023 81.9451 53.1506C82.9214 54.4536 83.5327 55.1917 84.9139 55.1917C86.2205 55.1916 86.8657 54.4526 87.8973 53.1311C88.857 51.9016 90.2039 50.0891 92.8797 50.0891C95.2953 50.0893 96.5932 51.478 97.5066 52.6614L97.8768 53.1506L98.2283 53.6125C99.0181 54.6266 99.6363 55.1915 100.845 55.1917C102.151 55.1917 102.797 54.4528 103.829 53.1311C104.789 51.9016 106.135 50.0892 108.81 50.0891C111.571 50.0891 112.873 51.9023 113.808 53.1506C114.785 54.4536 115.395 55.1916 116.776 55.1917C118.083 55.1917 118.729 54.4529 119.761 53.1311C120.72 51.9016 122.066 50.0891 124.742 50.0891Z" fill="#5C65FF"/>
<path d="M116.633 37.493C116.788 38.7491 117.511 40.2668 117.511 40.9471C117.511 42.0462 116.169 42.8312 114.827 42.8312C112.402 42.8312 112.712 40.3191 112.712 36.0276V35.3996C111.938 36.9173 111.267 37.964 110.441 39.1154C108.687 41.5752 106.829 43.0929 104.611 43.0929C101.308 43.0929 98.9863 40.9471 98.9863 37.7024C98.9863 35.6613 100.276 31.5792 102.082 28.5437C104.559 24.3046 107.603 21.6355 110.596 21.6355C112.918 21.6355 114.002 22.7345 114.776 24.7233C115.034 25.299 115.137 25.5606 115.601 25.7176C116.427 26.0316 117.098 26.398 117.201 27.4447C117.304 28.7007 116.788 31.9455 116.633 34.0389C116.53 35.295 116.53 36.6557 116.633 37.493ZM104.198 38.9061C106.262 38.9061 109.358 34.3529 111.112 30.6895C110.751 30.3231 110.648 29.9044 110.648 29.3288C110.648 28.9101 110.803 28.3344 111.009 27.8634C111.267 27.34 111.422 26.869 111.422 26.4503C111.422 25.927 111.164 25.613 110.751 25.613C109.306 25.613 105.333 31.8408 104.404 34.4576C103.991 35.609 103.579 37.022 103.579 38.121C103.579 38.5397 103.682 38.9061 104.198 38.9061Z" fill="#212121"/>
<path d="M90.3537 43.2581C87.2623 43.0888 85.2806 42.4562 83.5218 41.5213C82.4133 40.9889 81.4301 40.044 81.4885 38.9466C81.5469 37.8491 82.3183 36.948 83.6065 37.0185C84.6369 37.075 85.0784 37.5184 85.9697 38.2486C86.6033 38.9646 87.7202 39.3402 89.472 39.4362C93.4394 39.6534 95.4265 38.2423 95.4793 37.2494C95.4988 36.8836 95.3038 36.6633 94.8972 36.5362C94.2817 36.4501 93.6634 36.4162 92.0146 36.3259C88.7686 36.1482 85.957 35.5749 84.7649 34.671C83.57 33.8194 83.1021 32.9028 83.1744 31.5441C83.3469 28.304 85.9911 24.2559 89.2426 22.3899C90.3635 21.7176 91.7226 21.4251 93.0107 21.4956C94.7626 21.5916 96.6482 23.0575 97.5409 24.7312C97.9657 25.4882 98.1677 26.5475 98.1204 27.4359C98.0286 29.1604 97.1068 30.9443 95.4065 30.8512C94.0669 30.7779 92.6548 30.124 92.7188 28.9221C92.7466 28.3995 92.9722 28.0449 93.4094 27.5972C93.7352 27.3006 93.855 26.9926 93.88 26.5223C93.9162 25.843 93.678 25.463 93.1628 25.4348C92.493 25.3981 91.6491 25.7188 90.6744 26.5564C89.105 27.8856 88.0287 29.661 87.962 30.9153C87.9369 31.3856 88.0316 31.548 88.7989 31.6949C91.2094 32.0365 95.1336 32.0942 97.2615 32.892C99.1373 33.5713 100.03 35.2449 99.9327 37.074C99.7324 40.8366 95.3001 43.5289 90.3537 43.2581Z" fill="#212121"/>
</svg>
